<?xml version="1.0" encoding="utf-8"?>
<!-- Svg Vector Icons : http://www.onlinewebfonts.com/icon -->
<!DOCTYPE svg PUBLIC "-//W3C//DTD SVG 1.1//EN" "http://www.w3.org/Graphics/SVG/1.1/DTD/svg11.dtd">
<svg version="1.1" xmlns="http://www.w3.org/2000/svg" xmlns:xlink="http://www.w3.org/1999/xlink" x="0px" y="0px" viewBox="0 0 1000 1000" enable-background="new 0 0 1000 1000" xml:space="preserve">
<metadata> Svg Vector Icons : http://www.onlinewebfonts.com/icon </metadata>
<g><g transform="translate(0.000000,512.000000) scale(0.100000,-0.100000)"><path d="M3027,3976L1063.5,2924.4V123.8v-2800.5l1969.2-1051.6L5000-4780l1969.2,1051.7l1967.3,1051.6V123.8v2800.5l-1953.9,1044C5908,4543,5021.1,5016.2,5009.6,5020C5000,5021.9,4107.3,4552.6,3027,3976z M5319.9,3071.9c103.4-49.8,183.9-145.6,224.1-270.1c42.1-134.1,46-1281.5,3.8-1421.3c-42.1-139.8-109.2-226-224.1-289.2c-88.1-47.9-124.5-55.6-247.1-55.6c-252.9,0-406.1,120.7-471.2,371.6c-38.3,153.2-30.6,1289.2,11.5,1404.1c36.4,99.6,145.6,222.2,237.5,264.3C4969.3,3127.4,5208.8,3125.5,5319.9,3071.9z M4291.2,2958.9v-134.1h-316.1h-316.1v-249v-249l74.7,49.8c174.3,114.9,423.3,67,515.3-101.5c84.3-155.2,105.4-737.5,32.6-942.4c-70.9-201.1-214.5-296.9-440.6-296.9c-316.1-1.9-467.4,143.7-469.3,448.2c0,227.9,1.9,229.9,145.6,229.9H3640v-143.7c0-172.4,34.5-272,101.5-287.3c90-23,170.5-1.9,212.6,53.6c36.4,47.9,40.2,86.2,46,323.7c11.5,431-15.3,513.4-168.6,513.4c-55.5,0-91.9-13.4-139.8-57.5c-57.5-49.8-82.4-57.5-174.3-57.5h-107.3v517.2v517.2h440.6h440.6V2958.9z M6314.1,3056.6c97.7-59.4,128.3-168.6,120.7-431c-7.7-185.8-13.4-227.9-47.9-272c-72.8-97.7-136-132.2-245.2-130.2c-208.8,1.9-277.8,111.1-279.7,436.7c0,237.5,32.6,339.1,128.3,398.4C6065,3104.4,6237.4,3104.4,6314.1,3056.6z M6664.6,2296.1c-114.9-429.1-210.7-781.5-216.5-787.3c-3.8-3.8-42.1-5.7-84.3-1.9l-74.7,5.7l185.8,699.2c103.5,385,197.3,735.6,208.8,781.5c23,78.5,24.9,80.5,105.4,80.5h82.4L6664.6,2296.1z M7179.9,2313.3c72.8-53.6,116.9-195.4,118.8-379.3c0-193.5-24.9-283.5-103.4-367.8c-51.7-55.5-78.5-69-157.1-76.6c-136-13.4-224.1,28.7-279.7,132.2c-38.3,72.8-44.1,109.2-44.1,302.7c0,189.6,5.7,231.8,42.1,298.8c23,44.1,68.9,91.9,105.4,111.1C6944.3,2376.5,7109,2366.9,7179.9,2313.3z M8639.6-1173l-1.9-1317.9l-1817.9-971.2L5000-4431.4l-1819.8,969.3l-1817.9,971.2l-1.9,1317.9V143H5000h3639.6V-1173z"/><path d="M4978.9,2857.3c-70.9-53.6-74.7-93.9-74.7-777.7c0-450.2,7.7-685.8,21.1-716.4c44-95.8,191.5-118.8,279.7-44.1l53.6,46l5.7,649.4c3.8,356.3,0,676.2-5.7,712.6c-17.2,93.9-88.1,155.2-176.2,155.2C5042.1,2882.2,4996.2,2870.7,4978.9,2857.3z"/><path d="M6086.1,2924.4c-63.2-70.9-65.1-467.4-1.9-530.6c44.1-42.1,116.9-36.4,145.6,15.3c15.3,26.8,24.9,120.7,24.9,254.8c0,183.9-5.7,220.3-36.4,254.8C6174.2,2968.4,6126.3,2970.4,6086.1,2924.4z"/><path d="M6932.8,2179.2c-19.2-23-26.8-93.9-26.8-258.6c0-214.5,1.9-231.8,42.1-264.3c55.5-44.1,118.8-28.7,141.7,32.6c24.9,67,21.1,415.7-5.7,475C7059.2,2221.4,6973,2230.9,6932.8,2179.2z"/><path d="M4925.3-659.6c-113-28.7-216.5-118.8-279.7-241.4l-57.5-113v-670.4c0-660.9,0-674.3,44.1-768.1c57.5-124.5,107.3-178.1,224.1-231.8c189.6-90,423.3-53.7,565.1,88.1c147.5,145.6,155.2,197.3,155.2,913.7c0,657-7.6,720.2-105.4,867.7c-65.1,97.7-191.6,157.1-354.4,164.8C5047.9-646.2,4961.7-652,4925.3-659.6z M5170.5-901c30.6-15.3,65.1-53.6,76.6-88.1c34.5-97.7,28.7-1321.7-5.8-1404.1c-44.1-107.3-216.5-130.3-293.1-40.2c-44.1,49.8-44.1,51.7-44.1,733.7c0,731.7,3.8,756.7,95.8,802.6C5063.2-864.6,5105.4-866.5,5170.5-901z"/><path d="M3410.1-1188.3v-526.8h107.3c93.9,0,113,7.7,159,55.6c101.5,109.2,235.6,99.6,293.1-17.2c28.7-53.6,34.5-118.8,34.5-335.2c0-285.4-19.2-392.7-78.5-452.1c-51.7-51.7-155.2-47.9-222.2,9.6c-49.8,44.1-53.6,57.5-59.4,220.3l-7.7,174.3h-120.7c-141.7,0-143.7-1.9-143.7-231.8c0-273.9,134.1-417.6,409.9-434.8c233.7-15.3,390.8,63.2,477,237.5c95.8,189.6,91.9,827.5-7.7,999.9c-21.1,40.2-59.4,86.2-84.3,105.4c-105.4,76.6-323.7,74.7-434.8-5.7c-28.7-21.1-57.5-38.3-63.2-38.3s-7.7,109.2-5.7,245.2l5.7,243.3l312.2,5.7l310.3,3.8v134.1v134.1h-440.6h-440.6V-1188.3z"/><path d="M6017.2-694.1c-122.6-65.1-143.7-114.9-153.2-363.9c-7.7-254.8,11.5-339,93.9-417.6c78.5-74.7,245.2-90,341-28.7c109.2,67,141.8,176.2,134.1,427.2c-5.8,233.7-26.8,298.8-114.9,364C6247-659.6,6099.5-650,6017.2-694.1z M6229.8-856.9c15.3-28.7,24.9-122.6,24.9-260.5c0-206.9-1.9-220.3-46-254.8c-55.5-46-63.2-46-118.8,0c-44.1,34.5-46,49.8-46,254.8c0,249,19.2,302.7,105.4,302.7C6187.6-814.8,6212.5-828.2,6229.8-856.9z"/><path d="M6687.6-751.6c-70.9-270.1-388.8-1457.7-396.5-1484.6c-9.6-28.7,1.9-34.5,76.6-34.5c47.9,0,88.1,3.8,88.1,9.6c0,11.5,400.4,1521,411.8,1557.4c5.7,15.3-17.3,23-76.6,23C6708.7-680.7,6704.8-682.6,6687.6-751.6z"/><path d="M6929-1410.5c-159-26.8-235.6-191.6-220.3-478.9c17.2-277.8,99.6-388.9,293.1-388.9c195.4,0,281.6,114.9,293.1,400.3c9.6,201.1-15.3,314.2-88.1,394.6C7147.3-1416.3,7045.8-1389.5,6929-1410.5z M7076.5-1584.9c23-32.5,30.6-93.8,30.6-254.8c0-241.4-23-302.7-111.1-293.1c-82.4,9.6-101.5,72.8-95.8,318c5.7,189.6,9.6,220.3,42.1,245.2C6996-1531.2,7043.9-1537,7076.5-1584.9z"/></g></g>
</svg>