<?xml version="1.0" encoding="utf-8"?>
<!-- Svg Vector Icons : http://www.onlinewebfonts.com/icon -->
<!DOCTYPE svg PUBLIC "-//W3C//DTD SVG 1.1//EN" "http://www.w3.org/Graphics/SVG/1.1/DTD/svg11.dtd">
<svg version="1.1" xmlns="http://www.w3.org/2000/svg" xmlns:xlink="http://www.w3.org/1999/xlink" x="0px" y="0px" viewBox="0 0 1000 1000" enable-background="new 0 0 1000 1000" xml:space="preserve">
<metadata> Svg Vector Icons : http://www.onlinewebfonts.com/icon </metadata>
<g><g transform="translate(0.000000,511.000000) scale(0.100000,-0.100000)"><path d="M4685.1,5040.1c-710.6-72.8-1220-214-1780.7-488C1010.2,3618.9-92.1,1637,147.7-409.1c51.4-440.9,181.9-956.7,321-1271.3l49.2-113.4l265.4,115.6c203.3,89.9,263.2,126.3,259,154.1c-2.1,21.4-47.1,164.8-100.6,316.8c-301.8,871.1-301.8,1832.1-2.1,2739.5c614.3,1866.3,2390.7,3041.3,4381.2,2900.1c2069.7-147.7,3677-1660.9,3944.5-3709.1c85.6-657.1,17.1-1346.3-192.6-1981.9c-479.4-1434-1680.1-2491.3-3178.3-2793.1c-336-68.5-798.3-104.9-1091.5-87.7c-462.3,27.8-984.5,139.1-1344.1,284.6c-139.1,57.8-156.2,59.9-173.4,27.8c-32.1-62.1-216.2-492.3-216.2-505.1c0-34.2,485.8-203.3,802.6-278.2c406.7-96.3,678.5-126.3,1134.4-126.3c475.1,0,742.7,32.1,1170.7,139.1C7707.1-4212.4,9012.7-3048,9588.4-1558.4c355.3,918.2,408.8,2005.4,149.8,2955.7c-222.6,806.9-625,1511-1217.8,2127.4C7752.1,4325.2,6763.3,4838.9,5691,4997.3C5459.8,5031.5,4854.1,5057.2,4685.1,5040.1z"/><path d="M4802.8,3642.5c-40.7-21.4-94.2-72.8-117.7-111.3c-42.8-70.6-42.8-111.3-42.8-1817.1V-30.2l49.2-70.6c100.6-139.1-2.1-132.7,1913.4-132.7c1686.5,0,1742.2,2.1,1808.5,42.8c143.4,85.6,186.2,235.4,109.2,383.1c-94.2,184.1,8.6,173.4-1733.6,173.4H5252.2v1526v1526l-47.1,94.2C5121.7,3670.3,4954.7,3725.9,4802.8,3642.5z"/><path d="M1945.5-963.4c-36.4-8.5-94.2-47.1-128.4-83.5l-64.2-66.4l-6.4-738.4l-6.4-736.2h-712.7c-706.3,0-712.7,0-785.5-49.2c-192.6-128.4-188.3-387.4,8.6-507.2c64.2-40.7,113.4-42.8,779.1-42.8H1740l6.4-740.5l6.4-740.6l77.1-68.5c102.7-94.2,205.5-113.5,329.6-57.8c77.1,34.2,107,62,139.1,134.8c38.5,85.6,42.8,143.4,42.8,783.3v689.2h697.7c772.6,0,809,6.4,888.2,137c53.5,85.6,53.5,239.7,0,325.3c-79.2,130.5-115.6,137-888.2,137h-697.7v691.3c0,635.7-4.3,695.6-42.8,781.2c-32.1,70.6-62.1,100.6-132.7,132.7C2065.4-937.7,2041.8-935.6,1945.5-963.4z"/></g></g>
</svg>