<?xml version="1.0" encoding="utf-8"?>
<!-- Svg Vector Icons : http://www.onlinewebfonts.com/icon -->
<!DOCTYPE svg PUBLIC "-//W3C//DTD SVG 1.1//EN" "http://www.w3.org/Graphics/SVG/1.1/DTD/svg11.dtd">
<svg version="1.1" xmlns="http://www.w3.org/2000/svg" xmlns:xlink="http://www.w3.org/1999/xlink" x="0px" y="0px" viewBox="0 0 1000 1000" enable-background="new 0 0 1000 1000" xml:space="preserve">
<metadata> Svg Vector Icons : http://www.onlinewebfonts.com/icon </metadata>
<g><g><path d="M694.1,689.2H532.3l-184.1-216l-179.9,216H10l260.8-295.3L22.5,115.2h159.7l173,202l174.3-202h152.7l-251,278.7L694.1,689.2z M793.5,809.2l105.3-79.8c36.9-25.4,61.2-48.9,72.9-70.7c11.6-21.7,17.4-45.1,17.4-70.1c0-40.9-13.7-73.8-41-98.9c-27.3-25.1-63.2-37.7-107.7-37.7c-42.9,0-77.2,12.7-102.9,38.1c-25.8,25.4-38.6,63.7-38.6,114.9h82.7c0-30.5,5.4-51.7,16.2-63.4c10.8-11.7,25.6-17.6,44.5-17.6c18.9,0,33.8,6,44.8,17.9c11,11.9,16.5,26.7,16.5,44.4c0,17.6-5.1,33.6-15.3,47.9c-10.2,14.3-38.6,38.4-85.2,72.3c-39.9,29.2-93.8,56.7-110,82.4l0.8,95.9H990v-75.6L793.5,809.2L793.5,809.2L793.5,809.2z"/></g><g></g><g></g><g></g><g></g><g></g><g></g><g></g><g></g><g></g><g></g><g></g><g></g><g></g><g></g><g></g></g>
</svg>